{
  "accessors": [
    {
      "bufferView": 3,
      "componentType": 5126,
      "count": 2041,
      "max": [
        0.7611309885978699,
        1.4954049587249756,
        0.2781611680984497
      ],
      "min": [
        -0.8070306181907654,
        0.08764441311359406,
        -0.26371869444847107
      ],
      "type": "VEC3"
    },
    {
      "bufferView": 3,
      "byteOffset": 24492,
      "componentType": 5126,
      "count": 2041,
      "max": [
        0.9977765083312988,
        0.9929325580596924,
        0.9997671246528625
      ],
      "min": [
        -0.999363362789154,
        -0.9999597668647766,
        -0.9993873238563538
      ],
      "type": "VEC3"
    },
    {
      "bufferView": 2,
      "componentType": 5126,
      "count": 2041,
      "max": [
        0.9974920153617859,
        0.9847059845924377
      ],
      "min": [
        0.0018500000005587935,
        0.005787014961242676
      ],
      "type": "VEC2"
    },
    {
      "bufferView": 1,
      "componentType": 5125,
      "count": 2085,
      "type": "SCALAR"
    },
    {
      "bufferView": 3,
      "byteOffset": 48984,
      "componentType": 5126,
      "count": 910,
      "max": [
        0.3115859031677246,
        1.1520570516586304,
        0.32544922828674316
      ],
      "min": [
        -0.3958264887332916,
        0.007330209482461214,
        -0.614050567150116
      ],
      "type": "VEC3"
    },
    {
      "bufferView": 3,
      "byteOffset": 59904,
      "componentType": 5126,
      "count": 910,
      "max": [
        0.9991980791091919,
        1.0,
        0.9998188018798828
      ],
      "min": [
        -0.9999395608901978,
        -1.0,
        -0.9994557499885559
      ],
      "type": "VEC3"
    },
    {
      "bufferView": 2,
      "byteOffset": 16328,
      "componentType": 5126,
      "count": 910,
      "max": [
        1.0012240409851074,
        0.9976599812507629
      ],
      "min": [
        0.002343999920412898,
        0.0009750127792358398
      ],
      "type": "VEC2"
    },
    {
      "bufferView": 1,
      "byteOffset": 8340,
      "componentType": 5125,
      "count": 912,
      "type": "SCALAR"
    },
    {
      "bufferView": 3,
      "byteOffset": 70824,
      "componentType": 5126,
      "count": 1452,
      "max": [
        0.2540639042854309,
        1.3953880071640015,
        0.26219964027404785
      ],
      "min": [
        -0.3025727868080139,
        0.8304985761642456,
        -0.25862979888916016
      ],
      "type": "VEC3"
    },
    {
      "bufferView": 3,
      "byteOffset": 88248,
      "componentType": 5126,
      "count": 1452,
      "max": [
        0.998455822467804,
        0.9810422658920288,
        0.999431312084198
      ],
      "min": [
        -0.9935141801834106,
        -0.9691306352615356,
        -0.9591296315193176
      ],
      "type": "VEC3"
    },
    {
      "bufferView": 2,
      "byteOffset": 23608,
      "componentType": 5126,
      "count": 1452,
      "max": [
        0.9881839752197266,
        0.9797210097312927
      ],
      "min": [
        0.014392999932169914,
        0.0018169879913330078
      ],
      "type": "VEC2"
    },
    {
      "bufferView": 1,
      "byteOffset": 11988,
      "componentType": 5125,
      "count": 1452,
      "type": "SCALAR"
    },
    {
      "bufferView": 5,
      "componentType": 5126,
      "count": 42,
      "max": [
        100.0,
        99.63639068603516,
        23.807884216308594,
        0.0,
        20.576993942260742,
        100.0,
        99.7960205078125,
        0.0,
        99.87084197998047,
        99.99649810791016,
        100.0,
        0.0,
        81.16445922851563,
        33.50526428222656,
        97.93842315673828,
        1.0
      ],
      "min": [
        -99.98090362548828,
        -99.96424102783203,
        -30.288833618164063,
        0.0,
        -27.242069244384766,
        -99.74375915527344,
        -99.8311996459961,
        0.0,
        -99.9166259765625,
        -29.547441482543945,
        -51.1802978515625,
        0.0,
        -65.96145629882813,
        -100.53314208984375,
        -5.345651626586914,
        1.0
      ],
      "type": "MAT4"
    },
    {
      "bufferView": 0,
      "componentType": 5123,
      "count": 2041,
      "type": "VEC4"
    },
    {
      "bufferView": 4,
      "componentType": 5126,
      "count": 2041,
      "max": [
        1.0,
        0.4993521571159363,
        0.20393306016921997,
        0.086042620241642
      ],
      "min": [
        0.449838787317276,
        0.0,
        0.0,
        0.0
      ],
      "type": "VEC4"
    },
    {
      "bufferView": 0,
      "byteOffset": 16328,
      "componentType": 5123,
      "count": 910,
      "type": "VEC4"
    },
    {
      "bufferView": 4,
      "byteOffset": 32656,
      "componentType": 5126,
      "count": 910,
      "max": [
        1.0,
        0.4971337616443634,
        0.23964868485927582,
        0.06693286448717117
      ],
      "min": [
        0.47116172313690186,
        0.0,
        0.0,
        0.0
      ],
      "type": "VEC4"
    },
    {
      "bufferView": 0,
      "byteOffset": 23608,
      "componentType": 5123,
      "count": 1452,
      "type": "VEC4"
    },
    {
      "bufferView": 4,
      "byteOffset": 47216,
      "componentType": 5126,
      "count": 1452,
      "max": [
        1.0,
        0.47504961490631104,
        0.3057512044906616,
        0.06875794380903244
      ],
      "min": [
        0.36001989245414734,
        0.0,
        0.0,
        0.0
      ],
      "type": "VEC4"
    },
    {
      "bufferView": 6,
      "componentType": 5126,
      "count": 1,
      "max": [
        0.0
      ],
      "min": [
        0.0
      ],
      "type": "SCALAR"
    },
    {
      "bufferView": 8,
      "componentType": 5126,
      "count": 1,
      "max": [
        -0.00010692195792216808,
        -0.0030832651536911726,
        0.19107671082019806,
        0.9815702438354492
      ],
      "min": [
        -0.00010692195792216808,
        -0.0030832651536911726,
        0.19107671082019806,
        0.9815702438354492
      ],
      "type": "VEC4"
    },
    {
      "bufferView": 6,
      "byteOffset": 4,
      "componentType": 5126,
      "count": 1,
      "max": [
        0.0
      ],
      "min": [
        0.0
      ],
      "type": "SCALAR"
    },
    {
      "bufferView": 8,
      "byteOffset": 16,
      "componentType": 5126,
      "count": 1,
      "max": [
        0.0010214956710115075,
        -0.009636876173317432,
        -0.051904235035181046,
        0.9986050724983215
      ],
      "min": [
        0.0010214956710115075,
        -0.009636876173317432,
        -0.051904235035181046,
        0.9986050724983215
      ],
      "type": "VEC4"
    },
    {
      "bufferView": 6,
      "byteOffset": 8,
      "componentType": 5126,
      "count": 1,
      "max": [
        0.0
      ],
      "min": [
        0.0
      ],
      "type": "SCALAR"
    },
    {
      "bufferView": 8,
      "byteOffset": 32,
      "componentType": 5126,
      "count": 1,
      "max": [
        0.1349932849407196,
        0.13895274698734283,
        0.2790984511375427,
        0.9405174255371094
      ],
      "min": [
        0.1349932849407196,
        0.13895274698734283,
        0.2790984511375427,
        0.9405174255371094
      ],
      "type": "VEC4"
    },
    {
      "bufferView": 6,
      "byteOffset": 12,
      "componentType": 5126,
      "count": 1,
      "max": [
        0.0
      ],
      "min": [
        0.0
      ],
      "type": "SCALAR"
    },
    {
      "bufferView": 8,
      "byteOffset": 48,
      "componentType": 5126,
      "count": 1,
      "max": [
        5.3054602176416665e-05,
        -0.0022108242847025394,
        -0.05331425368785858,
        0.9985753297805786
      ],
      "min": [
        5.3054602176416665e-05,
        -0.0022108242847025394,
        -0.05331425368785858,
        0.9985753297805786
      ],
      "type": "VEC4"
    },
    {
      "bufferView": 6,
      "byteOffset": 16,
      "componentType": 5126,
      "count": 1,
      "max": [
        0.0
      ],
      "min": [
        0.0
      ],
      "type": "SCALAR"
    },
    {
      "bufferView": 8,
      "byteOffset": 64,
      "componentType": 5126,
      "count": 1,
      "max": [
        8.593597885919735e-05,
        0.0029969068709760904,
        0.0005486742593348026,
        0.9999953508377075
      ],
      "min": [
        8.593597885919735e-05,
        0.0029969068709760904,
        0.0005486742593348026,
        0.9999953508377075
      ],
      "type": "VEC4"
    },
    {
      "bufferView": 6,
      "byteOffset": 20,
      "componentType": 5126,
      "count": 1,
      "max": [
        0.0
      ],
      "min": [
        0.0
      ],
      "type": "SCALAR"
    },
    {
      "bufferView": 8,
      "byteOffset": 80,
      "componentType": 5126,
      "count": 1,
      "max": [
        -0.0027265737298876047,
        -0.00568899791687727,
        0.014055472798645496,
        0.9998813271522522
      ],
      "min": [
        -0.0027265737298876047,
        -0.00568899791687727,
        0.014055472798645496,
        0.9998813271522522
      ],
      "type": "VEC4"
    },
    {
      "bufferView": 6,
      "byteOffset": 24,
      "componentType": 5126,
      "count": 1,
      "max": [
        0.0
      ],
      "min": [
        0.0
      ],
      "type": "SCALAR"
    },
    {
      "bufferView": 8,
      "byteOffset": 96,
      "componentType": 5126,
      "count": 1,
      "max": [
        0.002633915515616536,
        0.09802696853876114,
        -0.00025958390324376523,
        0.9951802492141724
      ],
      "min": [
        0.002633915515616536,
        0.09802696853876114,
        -0.00025958390324376523,
        0.9951802492141724
      ],
      "type": "VEC4"
    },
    {
      "bufferView": 6,
      "byteOffset": 28,
      "componentType": 5126,
      "count": 1,
      "max": [
        0.0
      ],
      "min": [
        0.0
      ],
      "type": "SCALAR"
    },
    {
      "bufferView": 8,
      "byteOffset": 112,
      "componentType": 5126,
      "count": 1,
      "max": [
        4.1952898044428366e-08,
        -0.00386074953712523,
        -4.408389884247299e-07,
        0.9999925494194031
      ],
      "min": [
        4.1952898044428366e-08,
        -0.00386074953712523,
        -4.408389884247299e-07,
        0.9999925494194031
      ],
      "type": "VEC4"
    },
    {
      "bufferView": 6,
      "byteOffset": 32,
      "componentType": 5126,
      "count": 1,
      "max": [
        0.0
      ],
      "min": [
        0.0
      ],
      "type": "SCALAR"
    },
    {
      "bufferView": 8,
      "byteOffset": 128,
      "componentType": 5126,
      "count": 1,
      "max": [
        -0.11024720221757889,
        0.0007212819182313979,
        0.017243115231394768,
        0.9937543272972107
      ],
      "min": [
        -0.11024720221757889,
        0.0007212819182313979,
        0.017243115231394768,
        0.9937543272972107
      ],
      "type": "VEC4"
    },
    {
      "bufferView": 6,
      "byteOffset": 36,
      "componentType": 5126,
      "count": 1,
      "max": [
        0.0
      ],
      "min": [
        0.0
      ],
      "type": "SCALAR"
    },
    {
      "bufferView": 8,
      "byteOffset": 144,
      "componentType": 5126,
      "count": 1,
      "max": [
        -0.5422587394714355,
        -0.44902729988098145,
        0.5617731809616089,
        -0.4344431757926941
      ],
      "min": [
        -0.5422587394714355,
        -0.44902729988098145,
        0.5617731809616089,
        -0.4344431757926941
      ],
      "type": "VEC4"
    },
    {
      "bufferView": 6,
      "byteOffset": 40,
      "componentType": 5126,
      "count": 1,
      "max": [
        0.0
      ],
      "min": [
        0.0
      ],
      "type": "SCALAR"
    },
    {
      "bufferView": 8,
      "byteOffset": 160,
      "componentType": 5126,
      "count": 1,
      "max": [
        0.00017043801199179143,
        -0.0035014713648706675,
        -0.3056507110595703,
        0.9521372318267822
      ],
      "min": [
        0.00017043801199179143,
        -0.0035014713648706675,
        -0.3056507110595703,
        0.9521372318267822
      ],
      "type": "VEC4"
    },
    {
      "bufferView": 6,
      "byteOffset": 44,
      "componentType": 5126,
      "count": 1,
      "max": [
        0.0
      ],
      "min": [
        0.0
      ],
      "type": "SCALAR"
    },
    {
      "bufferView": 8,
      "byteOffset": 176,
      "componentType": 5126,
      "count": 1,
      "max": [
        0.0010846152435988188,
        0.008981762453913689,
        0.14128588140010834,
        0.9899274706840515
      ],
      "min": [
        0.0010846152435988188,
        0.008981762453913689,
        0.14128588140010834,
        0.9899274706840515
      ],
      "type": "VEC4"
    },
    {
      "bufferView": 6,
      "byteOffset": 48,
      "componentType": 5126,
      "count": 1,
      "max": [
        0.0
      ],
      "min": [
        0.0
      ],
      "type": "SCALAR"
    },
    {
      "bufferView": 8,
      "byteOffset": 192,
      "componentType": 5126,
      "count": 1,
      "max": [
        0.16371393203735352,
        -0.10537637025117874,
        -0.32976263761520386,
        0.9237695336341858
      ],
      "min": [
        0.16371393203735352,
        -0.10537637025117874,
        -0.32976263761520386,
        0.9237695336341858
      ],
      "type": "VEC4"
    },
    {
      "bufferView": 6,
      "byteOffset": 52,
      "componentType": 5126,
      "count": 1,
      "max": [
        0.0
      ],
      "min": [
        0.0
      ],
      "type": "SCALAR"
    },
    {
      "bufferView": 8,
      "byteOffset": 208,
      "componentType": 5126,
      "count": 1,
      "max": [
        3.214070966350846e-05,
        0.0014967407332733274,
        0.027481326833367348,
        0.9996212124824524
      ],
      "min": [
        3.214070966350846e-05,
        0.0014967407332733274,
        0.027481326833367348,
        0.9996212124824524
      ],
      "type": "VEC4"
    },
    {
      "bufferView": 6,
      "byteOffset": 56,
      "componentType": 5126,
      "count": 1,
      "max": [
        0.0
      ],
      "min": [
        0.0
      ],
      "type": "SCALAR"
    },
    {
      "bufferView": 8,
      "byteOffset": 224,
      "componentType": 5126,
      "count": 1,
      "max": [
        5.606108061328996e-06,
        -0.00035384815419092774,
        0.009458436630666256,
        0.9999551773071289
      ],
      "min": [
        5.606108061328996e-06,
        -0.00035384815419092774,
        0.009458436630666256,
        0.9999551773071289
      ],
      "type": "VEC4"
    },
    {
      "bufferView": 6,
      "byteOffset": 60,
      "componentType": 5126,
      "count": 1,
      "max": [
        0.0
      ],
      "min": [
        0.0
      ],
      "type": "SCALAR"
    },
    {
      "bufferView": 8,
      "byteOffset": 240,
      "componentType": 5126,
      "count": 1,
      "max": [
        0.04775935783982277,
        0.004535396117717028,
        -0.012213732115924358,
        0.9987738728523254
      ],
      "min": [
        0.04775935783982277,
        0.004535396117717028,
        -0.012213732115924358,
        0.9987738728523254
      ],
      "type": "VEC4"
    },
    {
      "bufferView": 6,
      "byteOffset": 64,
      "componentType": 5126,
      "count": 1,
      "max": [
        0.0
      ],
      "min": [
        0.0
      ],
      "type": "SCALAR"
    },
    {
      "bufferView": 8,
      "byteOffset": 256,
      "componentType": 5126,
      "count": 1,
      "max": [
        -0.047377075999975204,
        -0.1344098150730133,
        -0.006433583330363035,
        0.9897717237472534
      ],
      "min": [
        -0.047377075999975204,
        -0.1344098150730133,
        -0.006433583330363035,
        0.9897717237472534
      ],
      "type": "VEC4"
    },
    {
      "bufferView": 6,
      "byteOffset": 68,
      "componentType": 5126,
      "count": 1,
      "max": [
        0.0
      ],
      "min": [
        0.0
      ],
      "type": "SCALAR"
    },
    {
      "bufferView": 8,
      "byteOffset": 272,
      "componentType": 5126,
      "count": 1,
      "max": [
        3.273692357197433e-07,
        0.006542440038174391,
        -5.984675510717352e-08,
        0.9999786019325256
      ],
      "min": [
        3.273692357197433e-07,
        0.006542440038174391,
        -5.984675510717352e-08,
        0.9999786019325256
      ],
      "type": "VEC4"
    },
    {
      "bufferView": 6,
      "byteOffset": 72,
      "componentType": 5126,
      "count": 1,
      "max": [
        0.0
      ],
      "min": [
        0.0
      ],
      "type": "SCALAR"
    },
    {
      "bufferView": 8,
      "byteOffset": 288,
      "componentType": 5126,
      "count": 1,
      "max": [
        -0.10918180644512177,
        -0.004951233975589275,
        0.023047691211104393,
        0.9937422275543213
      ],
      "min": [
        -0.10918180644512177,
        -0.004951233975589275,
        0.023047691211104393,
        0.9937422275543213
      ],
      "type": "VEC4"
    },
    {
      "bufferView": 6,
      "byteOffset": 76,
      "componentType": 5126,
      "count": 1,
      "max": [
        0.0
      ],
      "min": [
        0.0
      ],
      "type": "SCALAR"
    },
    {
      "bufferView": 8,
      "byteOffset": 304,
      "componentType": 5126,
      "count": 1,
      "max": [
        0.5641252994537354,
        -0.4325869083404541,
        0.5389854311943054,
        0.45180290937423706
      ],
      "min": [
        0.5641252994537354,
        -0.4325869083404541,
        0.5389854311943054,
        0.45180290937423706
      ],
      "type": "VEC4"
    },
    {
      "bufferView": 6,
      "byteOffset": 80,
      "componentType": 5126,
      "count": 1,
      "max": [
        0.0
      ],
      "min": [
        0.0
      ],
      "type": "SCALAR"
    },
    {
      "bufferView": 8,
      "byteOffset": 320,
      "componentType": 5126,
      "count": 1,
      "max": [
        0.011544883251190186,
        -3.6186542274663225e-05,
        -8.005104609765112e-05,
        0.9999333620071411
      ],
      "min": [
        0.011544883251190186,
        -3.6186542274663225e-05,
        -8.005104609765112e-05,
        0.9999333620071411
      ],
      "type": "VEC4"
    },
    {
      "bufferView": 6,
      "byteOffset": 84,
      "componentType": 5126,
      "count": 1,
      "max": [
        0.0
      ],
      "min": [
        0.0
      ],
      "type": "SCALAR"
    },
    {
      "bufferView": 8,
      "byteOffset": 336,
      "componentType": 5126,
      "count": 1,
      "max": [
        0.5254441499710083,
        0.03304377570748329,
        -0.017745157703757286,
        0.8500009775161743
      ],
      "min": [
        0.5254441499710083,
        0.03304377570748329,
        -0.017745157703757286,
        0.8500009775161743
      ],
      "type": "VEC4"
    },
    {
      "bufferView": 6,
      "byteOffset": 88,
      "componentType": 5126,
      "count": 1,
      "max": [
        0.0
      ],
      "min": [
        0.0
      ],
      "type": "SCALAR"
    },
    {
      "bufferView": 8,
      "byteOffset": 352,
      "componentType": 5126,
      "count": 1,
      "max": [
        -0.19176578521728516,
        -0.0015396738890558481,
        0.01962587796151638,
        0.9812432527542114
      ],
      "min": [
        -0.19176578521728516,
        -0.0015396738890558481,
        0.01962587796151638,
        0.9812432527542114
      ],
      "type": "VEC4"
    },
    {
      "bufferView": 6,
      "byteOffset": 92,
      "componentType": 5126,
      "count": 1,
      "max": [
        0.0
      ],
      "min": [
        0.0
      ],
      "type": "SCALAR"
    },
    {
      "bufferView": 8,
      "byteOffset": 368,
      "componentType": 5126,
      "count": 1,
      "max": [
        -5.300662814988755e-05,
        0.04822919890284538,
        0.9988167881965637,
        0.006244218442589045
      ],
      "min": [
        -5.300662814988755e-05,
        0.04822919890284538,
        0.9988167881965637,
        0.006244218442589045
      ],
      "type": "VEC4"
    },
    {
      "bufferView": 6,
      "byteOffset": 96,
      "componentType": 5126,
      "count": 1,
      "max": [
        0.0
      ],
      "min": [
        0.0
      ],
      "type": "SCALAR"
    },
    {
      "bufferView": 8,
      "byteOffset": 384,
      "componentType": 5126,
      "count": 1,
      "max": [
        0.528603196144104,
        -0.03617289662361145,
        0.015746474266052246,
        0.8479517698287964
      ],
      "min": [
        0.528603196144104,
        -0.03617289662361145,
        0.015746474266052246,
        0.8479517698287964
      ],
      "type": "VEC4"
    },
    {
      "bufferView": 6,
      "byteOffset": 100,
      "componentType": 5126,
      "count": 1,
      "max": [
        0.0
      ],
      "min": [
        0.0
      ],
      "type": "SCALAR"
    },
    {
      "bufferView": 8,
      "byteOffset": 400,
      "componentType": 5126,
      "count": 1,
      "max": [
        -0.18453752994537354,
        0.0015265007968991995,
        -0.01934695988893509,
        0.9826338291168213
      ],
      "min": [
        -0.18453752994537354,
        0.0015265007968991995,
        -0.01934695988893509,
        0.9826338291168213
      ],
      "type": "VEC4"
    },
    {
      "bufferView": 6,
      "byteOffset": 104,
      "componentType": 5126,
      "count": 1,
      "max": [
        0.0
      ],
      "min": [
        0.0
      ],
      "type": "SCALAR"
    },
    {
      "bufferView": 8,
      "byteOffset": 416,
      "componentType": 5126,
      "count": 1,
      "max": [
        -0.0001301731390412897,
        0.03267957642674446,
        0.9994480609893799,
        -0.005966873839497566
      ],
      "min": [
        -0.0001301731390412897,
        0.03267957642674446,
        0.9994480609893799,
        -0.005966873839497566
      ],
      "type": "VEC4"
    },
    {
      "bufferView": 6,
      "byteOffset": 108,
      "componentType": 5126,
      "count": 1,
      "max": [
        0.0
      ],
      "min": [
        0.0
      ],
      "type": "SCALAR"
    },
    {
      "bufferView": 7,
      "componentType": 5126,
      "count": 1,
      "max": [
        -0.0014223676407709718,
        39.1745719909668,
        -3.5959551334381104
      ],
      "min": [
        -0.0014223676407709718,
        39.1745719909668,
        -3.5959551334381104
      ],
      "type": "VEC3"
    },
    {
      "bufferView": 6,
      "byteOffset": 112,
      "componentType": 5126,
      "count": 1,
      "max": [
        0.0
      ],
      "min": [
        0.0
      ],
      "type": "SCALAR"
    },
    {
      "bufferView": 8,
      "byteOffset": 432,
      "componentType": 5126,
      "count": 1,
      "max": [
        2.3098491510609165e-06,
        3.525981810525991e-05,
        8.046353468671441e-05,
        1.0
      ],
      "min": [
        2.3098491510609165e-06,
        3.525981810525991e-05,
        8.046353468671441e-05,
        1.0
      ],
      "type": "VEC4"
    }
  ],
  "animations": [
    {
      "channels": [
        {
          "sampler": 0,
          "target": {
            "node": 25,
            "path": "rotation"
          }
        },
        {
          "sampler": 1,
          "target": {
            "node": 24,
            "path": "rotation"
          }
        },
        {
          "sampler": 2,
          "target": {
            "node": 23,
            "path": "rotation"
          }
        },
        {
          "sampler": 3,
          "target": {
            "node": 29,
            "path": "rotation"
          }
        },
        {
          "sampler": 4,
          "target": {
            "node": 28,
            "path": "rotation"
          }
        },
        {
          "sampler": 5,
          "target": {
            "node": 27,
            "path": "rotation"
          }
        },
        {
          "sampler": 6,
          "target": {
            "node": 22,
            "path": "rotation"
          }
        },
        {
          "sampler": 7,
          "target": {
            "node": 21,
            "path": "rotation"
          }
        },
        {
          "sampler": 8,
          "target": {
            "node": 20,
            "path": "rotation"
          }
        },
        {
          "sampler": 9,
          "target": {
            "node": 19,
            "path": "rotation"
          }
        },
        {
          "sampler": 10,
          "target": {
            "node": 37,
            "path": "rotation"
          }
        },
        {
          "sampler": 11,
          "target": {
            "node": 36,
            "path": "rotation"
          }
        },
        {
          "sampler": 12,
          "target": {
            "node": 35,
            "path": "rotation"
          }
        },
        {
          "sampler": 13,
          "target": {
            "node": 41,
            "path": "rotation"
          }
        },
        {
          "sampler": 14,
          "target": {
            "node": 40,
            "path": "rotation"
          }
        },
        {
          "sampler": 15,
          "target": {
            "node": 39,
            "path": "rotation"
          }
        },
        {
          "sampler": 16,
          "target": {
            "node": 34,
            "path": "rotation"
          }
        },
        {
          "sampler": 17,
          "target": {
            "node": 33,
            "path": "rotation"
          }
        },
        {
          "sampler": 18,
          "target": {
            "node": 32,
            "path": "rotation"
          }
        },
        {
          "sampler": 19,
          "target": {
            "node": 31,
            "path": "rotation"
          }
        },
        {
          "sampler": 20,
          "target": {
            "node": 13,
            "path": "rotation"
          }
        },
        {
          "sampler": 21,
          "target": {
            "node": 45,
            "path": "rotation"
          }
        },
        {
          "sampler": 22,
          "target": {
            "node": 44,
            "path": "rotation"
          }
        },
        {
          "sampler": 23,
          "target": {
            "node": 43,
            "path": "rotation"
          }
        },
        {
          "sampler": 24,
          "target": {
            "node": 50,
            "path": "rotation"
          }
        },
        {
          "sampler": 25,
          "target": {
            "node": 49,
            "path": "rotation"
          }
        },
        {
          "sampler": 26,
          "target": {
            "node": 48,
            "path": "rotation"
          }
        },
        {
          "sampler": 27,
          "target": {
            "node": 12,
            "path": "translation"
          }
        },
        {
          "sampler": 28,
          "target": {
            "node": 12,
            "path": "rotation"
          }
        }
      ],
      "name": "mixamo.com",
      "samplers": [
        {
          "input": 19,
          "interpolation": "LINEAR",
          "output": 20
        },
        {
          "input": 21,
          "interpolation": "LINEAR",
          "output": 22
        },
        {
          "input": 23,
          "interpolation": "LINEAR",
          "output": 24
        },
        {
          "input": 25,
          "interpolation": "LINEAR",
          "output": 26
        },
        {
          "input": 27,
          "interpolation": "LINEAR",
          "output": 28
        },
        {
          "input": 29,
          "interpolation": "LINEAR",
          "output": 30
        },
        {
          "input": 31,
          "interpolation": "LINEAR",
          "output": 32
        },
        {
          "input": 33,
          "interpolation": "LINEAR",
          "output": 34
        },
        {
          "input": 35,
          "interpolation": "LINEAR",
          "output": 36
        },
        {
          "input": 37,
          "interpolation": "LINEAR",
          "output": 38
        },
        {
          "input": 39,
          "interpolation": "LINEAR",
          "output": 40
        },
        {
          "input": 41,
          "interpolation": "LINEAR",
          "output": 42
        },
        {
          "input": 43,
          "interpolation": "LINEAR",
          "output": 44
        },
        {
          "input": 45,
          "interpolation": "LINEAR",
          "output": 46
        },
        {
          "input": 47,
          "interpolation": "LINEAR",
          "output": 48
        },
        {
          "input": 49,
          "interpolation": "LINEAR",
          "output": 50
        },
        {
          "input": 51,
          "interpolation": "LINEAR",
          "output": 52
        },
        {
          "input": 53,
          "interpolation": "LINEAR",
          "output": 54
        },
        {
          "input": 55,
          "interpolation": "LINEAR",
          "output": 56
        },
        {
          "input": 57,
          "interpolation": "LINEAR",
          "output": 58
        },
        {
          "input": 59,
          "interpolation": "LINEAR",
          "output": 60
        },
        {
          "input": 61,
          "interpolation": "LINEAR",
          "output": 62
        },
        {
          "input": 63,
          "interpolation": "LINEAR",
          "output": 64
        },
        {
          "input": 65,
          "interpolation": "LINEAR",
          "output": 66
        },
        {
          "input": 67,
          "interpolation": "LINEAR",
          "output": 68
        },
        {
          "input": 69,
          "interpolation": "LINEAR",
          "output": 70
        },
        {
          "input": 71,
          "interpolation": "LINEAR",
          "output": 72
        },
        {
          "input": 73,
          "interpolation": "LINEAR",
          "output": 74
        },
        {
          "input": 75,
          "interpolation": "LINEAR",
          "output": 76
        }
      ]
    }
  ],
  "asset": {
    "extras": {
      "author": "xdanni1984x (https://sketchfab.com/xdanni1984x)",
      "license": "CC-BY-4.0 (http://creativecommons.org/licenses/by/4.0/)",
      "source": "https://sketchfab.com/3d-models/russell-fbx-free-download-d78b4630dc0c49098add6ae86d6805b6",
      "title": "Russell FBX Free Download"
    },
    "generator": "Sketchfab-16.59.0",
    "version": "2.0"
  },
  "bufferViews": [
    {
      "buffer": 0,
      "byteLength": 35224,
      "byteStride": 8,
      "name": "shortBufferViews",
      "target": 34962
    },
    {
      "buffer": 0,
      "byteLength": 17796,
      "byteOffset": 35224,
      "name": "floatBufferViews",
      "target": 34963
    },
    {
      "buffer": 0,
      "byteLength": 35224,
      "byteOffset": 53020,
      "byteStride": 8,
      "name": "floatBufferViews",
      "target": 34962
    },
    {
      "buffer": 0,
      "byteLength": 105672,
      "byteOffset": 88244,
      "byteStride": 12,
      "name": "floatBufferViews",
      "target": 34962
    },
    {
      "buffer": 0,
      "byteLength": 70448,
      "byteOffset": 193916,
      "byteStride": 16,
      "name": "floatBufferViews",
      "target": 34962
    },
    {
      "buffer": 0,
      "byteLength": 2688,
      "byteOffset": 264364,
      "name": "floatBufferViews"
    },
    {
      "buffer": 0,
      "byteLength": 116,
      "byteOffset": 267052,
      "name": "floatBufferViews"
    },
    {
      "buffer": 0,
      "byteLength": 12,
      "byteOffset": 267168,
      "byteStride": 12,
      "name": "floatBufferViews"
    },
    {
      "buffer": 0,
      "byteLength": 448,
      "byteOffset": 267180,
      "byteStride": 16,
      "name": "floatBufferViews"
    }
  ],
  "buffers": [
    {
      "byteLength": 267628,
      "uri": "scene.bin"
    }
  ],
  "images": [
    {
      "uri": "textures/Material.001_baseColor.png"
    },
    {
      "uri": "textures/Material_2_baseColor.png"
    },
    {
      "uri": "textures/Material_3_baseColor.png"
    }
  ],
  "materials": [
    {
      "doubleSided": true,
      "name": "Material.001",
      "pbrMetallicRoughness": {
        "baseColorTexture": {
          "index": 0
        },
        "metallicFactor": 0.0
      }
    },
    {
      "doubleSided": true,
      "name": "Material_2",
      "pbrMetallicRoughness": {
        "baseColorTexture": {
          "index": 1
        },
        "metallicFactor": 0.0
      }
    },
    {
      "doubleSided": true,
      "name": "Material_3",
      "pbrMetallicRoughness": {
        "baseColorTexture": {
          "index": 2
        },
        "metallicFactor": 0.0
      }
    }
  ],
  "meshes": [
    {
      "name": "Object_14_Material.001_0",
      "primitives": [
        {
          "attributes": {
            "JOINTS_0": 13,
            "NORMAL": 1,
            "POSITION": 0,
            "TEXCOORD_0": 2,
            "WEIGHTS_0": 14
          },
          "indices": 3,
          "material": 0,
          "mode": 4
        }
      ]
    },
    {
      "name": "Object_2_Material 2_0",
      "primitives": [
        {
          "attributes": {
            "JOINTS_0": 15,
            "NORMAL": 5,
            "POSITION": 4,
            "TEXCOORD_0": 6,
            "WEIGHTS_0": 16
          },
          "indices": 7,
          "material": 1,
          "mode": 4
        }
      ]
    },
    {
      "name": "Object_6_Material 3_0",
      "primitives": [
        {
          "attributes": {
            "JOINTS_0": 17,
            "NORMAL": 9,
            "POSITION": 8,
            "TEXCOORD_0": 10,
            "WEIGHTS_0": 18
          },
          "indices": 11,
          "material": 2,
          "mode": 4
        }
      ]
    }
  ],
  "nodes": [
    {
      "children": [
        1
      ],
      "matrix": [
        1.0,
        0.0,
        0.0,
        0.0,
        0.0,
        2.220446049250313e-16,
        -1.0,
        0.0,
        0.0,
        1.0,
        2.220446049250313e-16,
        0.0,
        0.0,
        0.0,
        0.0,
        1.0
      ],
      "name": "Sketchfab_model"
    },
    {
      "children": [
        2
      ],
      "matrix": [
        0.009999999776482582,
        0.0,
        0.0,
        0.0,
        0.0,
        0.0,
        0.009999999776482582,
        0.0,
        0.0,
        -0.009999999776482582,
        0.0,
        0.0,
        0.0,
        0.0,
        0.0,
        1.0
      ],
      "name": "c1c83aff60c8415ba1d3d66bc85e61ce.fbx"
    },
    {
      "children": [
        3
      ],
      "name": "Object_2"
    },
    {
      "children": [
        4
      ],
      "name": "RootNode"
    },
    {
      "children": [
        5,
        7,
        9,
        11,
        6,
        8,
        10,
        53,
        54,
        55
      ],
      "name": "Object_4"
    },
    {
      "children": [
        12
      ],
      "name": "_rootJoint"
    },
    {
      "matrix": [
        99.99999999999997,
        2.458970527197124e-16,
        5.551115123125783e-17,
        0.0,
        -2.4589704852873655e-16,
        99.99999999999977,
        -7.549790127292511e-06,
        0.0,
        -5.551116979596911e-17,
        7.549790127292509e-06,
        99.99999999999974,
        0.0,
        -3.552713678800501e-15,
        0.0,
        4.440892098500626e-16,
        1.0
      ],
      "name": "Object_6"
    },
    {
      "mesh": 0,
      "name": "Object_7",
      "skin": 0
    },
    {
      "matrix": [
        100.00000000000003,
        0.0,
        3.1086244689504383e-15,
        0.0,
        2.346946232238093e-22,
        99.99999999999969,
        -7.549790126404334e-06,
        0.0,
        -3.1086244689504285e-15,
        7.549790126404337e-06,
        99.99999999999973,
        0.0,
        0.0,
        3.552713678800501e-15,
        -1.7763568394002505e-15,
        1.0
      ],
      "name": "Object_8"
    },
    {
      "mesh": 1,
      "name": "Object_9",
      "skin": 0
    },
    {
      "matrix": [
        100.0,
        0.0,
        0.0,
        0.0,
        0.0,
        99.99999999999974,
        -7.549790126404333e-06,
        0.0,
        0.0,
        7.549790126404333e-06,
        99.99999999999974,
        0.0,
        0.0,
        0.0,
        0.0,
        1.0
      ],
      "name": "Object_10"
    },
    {
      "mesh": 2,
      "name": "Object_11",
      "skin": 0
    },
    {
      "children": [
        13,
        43,
        48
      ],
      "name": "mixamorig:Hips_01",
      "translation": [
        -2.294981002807617,
        39.452396392822266,
        -4.34743595123291
      ]
    },
    {
      "children": [
        14
      ],
      "name": "mixamorig:Spine_02",
      "rotation": [
        0.011547193862497807,
        0.0,
        0.0,
        0.9999334216117859
      ],
      "translation": [
        0.0,
        10.726837158203125,
        0.24777889251708984
      ]
    },
    {
      "children": [
        15
      ],
      "name": "mixamorig:Spine1_03",
      "rotation": [
        2.793222764196912e-09,
        0.0,
        0.0,
        1.0
      ],
      "translation": [
        0.0,
        12.517983436584473,
        -8.184735555971656e-09
      ]
    },
    {
      "children": [
        16,
        19,
        31
      ],
      "name": "mixamorig:Spine2_04",
      "rotation": [
        -1.734723475976807e-18,
        -0.0,
        0.0,
        1.0
      ],
      "translation": [
        0.0,
        14.306260108947754,
        -6.361319471182014e-09
      ]
    },
    {
      "children": [
        17
      ],
      "name": "mixamorig:Neck_05",
      "rotation": [
        -0.01154719665646553,
        -0.0,
        0.0,
        0.9999334216117859
      ],
      "translation": [
        0.0,
        16.094547271728516,
        -6.755935828550719e-07
      ]
    },
    {
      "children": [
        18
      ],
      "name": "mixamorig:Head_06",
      "translation": [
        0.0,
        7.446563720703125,
        0.7375562191009521
      ]
    },
    {
      "name": "mixamorig:HeadTop_End_07",
      "translation": [
        0.0,
        40.004730224609375,
        3.9623301029205322
      ]
    },
    {
      "children": [
        20
      ],
      "name": "mixamorig:LeftShoulder_08",
      "rotation": [
        -0.5471749901771545,
        -0.44308751821517944,
        0.56625896692276,
        -0.4285134971141815
      ],
      "translation": [
        10.498687744140625,
        13.61351490020752,
        -0.36218759417533875
      ]
    },
    {
      "children": [
        21
      ],
      "name": "mixamorig:LeftArm_09",
      "rotation": [
        -0.04214063659310341,
        0.00030408790917135775,
        -0.007209418341517448,
        0.9990857243537903
      ],
      "translation": [
        3.971357287468891e-08,
        21.844858169555664,
        1.1691824397530581e-07
      ]
    },
    {
      "children": [
        22
      ],
      "name": "mixamorig:LeftForeArm_010",
      "rotation": [
        -0.05009531229734421,
        -0.0038445377722382545,
        0.0764227882027626,
        0.9958088397979736
      ],
      "translation": [
        -1.931688586864766e-09,
        16.07416343688965,
        -9.156124747278227e-09
      ]
    },
    {
      "children": [
        23,
        27
      ],
      "name": "mixamorig:LeftHand_011",
      "rotation": [
        -0.04708351939916611,
        0.09525606036186218,
        -0.2062315195798874,
        0.9727169275283813
      ],
      "translation": [
        -2.4644576157584197e-08,
        16.754905700683594,
        3.0758130264985084e-08
      ]
    },
    {
      "children": [
        24
      ],
      "name": "mixamorig:LeftHandThumb1_012",
      "rotation": [
        2.1058382060346048e-07,
        1.905485191855405e-07,
        0.6788257360458374,
        0.7342994213104248
      ],
      "translation": [
        -3.4301812648773193,
        0.08503572642803192,
        2.6579968448459113e-08
      ]
    },
    {
      "children": [
        25
      ],
      "name": "mixamorig:LeftHandThumb2_013",
      "rotation": [
        0.09142134338617325,
        -1.6357124381960473e-17,
        -2.637061718986403e-17,
        0.9958122968673706
      ],
      "translation": [
        -0.1472976952791214,
        2.7410335540771484,
        -4.172437684246688e-08
      ]
    },
    {
      "children": [
        26
      ],
      "name": "mixamorig:LeftHandThumb3_014",
      "rotation": [
        -0.08692430704832077,
        -2.4126341771158125e-18,
        2.7650518714751004e-17,
        0.9962149262428284
      ],
      "translation": [
        -0.639309287071228,
        4.024193286895752,
        -1.0721316812123405e-07
      ]
    },
    {
      "name": "mixamorig:LeftHandThumb4_015",
      "rotation": [
        -4.016996069111656e-09,
        6.938893903907228e-18,
        2.787350953597817e-26,
        1.0
      ],
      "translation": [
        0.7866069674491882,
        3.4059481620788574,
        -4.854025803524564e-08
      ]
    },
    {
      "children": [
        28
      ],
      "name": "mixamorig:LeftHandIndex1_016",
      "rotation": [
        -0.03312185779213905,
        -0.004862602800130844,
        0.14517076313495636,
        0.9888401031494141
      ],
      "translation": [
        -4.075437765038714e-09,
        4.005002975463867,
        -0.02123918943107128
      ]
    },
    {
      "children": [
        29
      ],
      "name": "mixamorig:LeftHandIndex2_017",
      "rotation": [
        0.10416233539581299,
        2.0327944166445048e-19,
        1.9409482880827087e-18,
        0.9945604205131531
      ],
      "translation": [
        0.1183769553899765,
        4.214980125427246,
        4.108599682695058e-09
      ]
    },
    {
      "children": [
        30
      ],
      "name": "mixamorig:LeftHandIndex3_018",
      "rotation": [
        0.09103468060493469,
        1.4136005470912685e-17,
        2.191681207408251e-18,
        0.9958478212356567
      ],
      "translation": [
        0.08651582151651382,
        2.9634697437286377,
        2.3342209942711634e-08
      ]
    },
    {
      "name": "mixamorig:LeftHandIndex4_00",
      "rotation": [
        2.558921519124624e-09,
        1.3877787807814457e-17,
        -6.938893903907228e-18,
        1.0
      ],
      "translation": [
        -0.20489276945590973,
        2.6386146545410156,
        5.233860633779841e-08
      ]
    },
    {
      "children": [
        32
      ],
      "name": "mixamorig:RightShoulder_019",
      "rotation": [
        0.5688604712486267,
        -0.4264070391654968,
        0.5436549782752991,
        0.44610992074012756
      ],
      "translation": [
        -10.498687744140625,
        13.63288402557373,
        0.47635719180107117
      ]
    },
    {
      "children": [
        33
      ],
      "name": "mixamorig:RightArm_020",
      "rotation": [
        -0.04065822437405586,
        -0.0019051192793995142,
        0.046766769140958786,
        0.998076319694519
      ],
      "translation": [
        3.123402336768777e-08,
        21.84485626220703,
        2.5613402954149933e-07
      ]
    },
    {
      "children": [
        34
      ],
      "name": "mixamorig:RightForeArm_021",
      "rotation": [
        -0.0523776151239872,
        0.006483926437795162,
        -0.12268291413784027,
        0.9910416007041931
      ],
      "translation": [
        -2.9180387883798176e-08,
        16.07484245300293,
        1.9003539364348399e-07
      ]
    },
    {
      "children": [
        35,
        39
      ],
      "name": "mixamorig:RightHand_022",
      "rotation": [
        -0.09200301021337509,
        -0.13737671077251434,
        0.06574347615242004,
        0.9840431213378906
      ],
      "translation": [
        -9.435190406748006e-08,
        16.99415397644043,
        1.12713678390719e-08
      ]
    },
    {
      "children": [
        36
      ],
      "name": "mixamorig:RightHandThumb1_023",
      "rotation": [
        -3.041423894956097e-07,
        2.0660796451466013e-07,
        -0.5592827200889587,
        0.8289769887924194
      ],
      "translation": [
        2.992520570755005,
        1.2842285633087158,
        -6.067861022529542e-07
      ]
    },
    {
      "children": [
        37
      ],
      "name": "mixamorig:RightHandThumb2_024",
      "rotation": [
        0.07451581209897995,
        1.1770976158434759e-17,
        -2.871252432267926e-17,
        0.9972198605537415
      ],
      "translation": [
        -0.056331973522901535,
        2.6045479774475098,
        -3.566607631455554e-08
      ]
    },
    {
      "children": [
        38
      ],
      "name": "mixamorig:RightHandThumb3_025",
      "rotation": [
        0.06839631497859955,
        -5.0242656757353445e-18,
        2.816517229390802e-17,
        0.9976582527160645
      ],
      "translation": [
        1.0952332019805908,
        4.085425853729248,
        4.571393219521269e-08
      ]
    },
    {
      "name": "mixamorig:RightHandThumb4_026",
      "rotation": [
        -4.796712360644051e-09,
        -0.0,
        0.0,
        1.0
      ],
      "translation": [
        -1.0389009714126587,
        2.765688180923462,
        -5.8430813965060224e-08
      ]
    },
    {
      "children": [
        40
      ],
      "name": "mixamorig:RightHandIndex1_027",
      "rotation": [
        0.05682344362139702,
        0.0022053667344152927,
        0.03871921822428703,
        0.9976307153701782
      ],
      "translation": [
        6.074703406966364e-09,
        2.229240894317627,
        0.21390870213508606
      ]
    },
    {
      "children": [
        41
      ],
      "name": "mixamorig:RightHandIndex2_028",
      "rotation": [
        0.023013804107904434,
        -9.980646241260899e-20,
        -4.335660149661488e-18,
        0.9997351765632629
      ],
      "translation": [
        -0.11746573448181152,
        4.730448246002197,
        9.867036965260922e-09
      ]
    },
    {
      "children": [
        42
      ],
      "name": "mixamorig:RightHandIndex3_029",
      "rotation": [
        0.06922709196805954,
        -1.5611682655612639e-18,
        -2.249730261255385e-17,
        0.9976009130477905
      ],
      "translation": [
        -0.024761062115430832,
        4.191219329833984,
        2.7417002002039226e-10
      ]
    },
    {
      "name": "mixamorig:RightHandIndex4_030",
      "rotation": [
        1.1699218482874585e-08,
        1.3877787807814457e-16,
        -2.7755575615628914e-17,
        1.0
      ],
      "translation": [
        0.14222680032253265,
        2.8966434001922607,
        2.7104064770355762e-08
      ]
    },
    {
      "children": [
        44
      ],
      "name": "mixamorig:LeftUpLeg_031",
      "rotation": [
        0.00036374194314703345,
        -0.035256415605545044,
        0.9993250370025635,
        0.010310079902410507
      ],
      "translation": [
        9.852516174316406,
        -5.965141296386719,
        3.1049017906188965
      ]
    },
    {
      "children": [
        45
      ],
      "name": "mixamorig:LeftLeg_032",
      "rotation": [
        -0.02907719649374485,
        -0.000584196939598769,
        0.020078690722584724,
        0.9993753433227539
      ],
      "translation": [
        -1.7949304265130195e-08,
        15.29330825805664,
        4.920727647572676e-08
      ]
    },
    {
      "children": [
        46
      ],
      "name": "mixamorig:LeftFoot_033",
      "rotation": [
        0.4553745687007904,
        0.032777849584817886,
        -0.016779715195298195,
        0.8895381093025208
      ],
      "translation": [
        1.5658789820349739e-09,
        7.319553852081299,
        -1.2736088628173547e-08
      ]
    },
    {
      "children": [
        47
      ],
      "name": "mixamorig:LeftToeBase_034",
      "rotation": [
        0.3657684326171875,
        -0.04697437956929207,
        0.01848820224404335,
        0.9293358325958252
      ],
      "translation": [
        2.4020518907263977e-08,
        14.480652809143066,
        4.6329272862521975e-08
      ]
    },
    {
      "name": "mixamorig:LeftToe_End_035",
      "rotation": [
        -1.430857515805073e-10,
        3.199988830773076e-16,
        1.3010426069826053e-18,
        1.0
      ],
      "translation": [
        4.70291361409636e-10,
        5.7096943855285645,
        2.800053522378221e-10
      ]
    },
    {
      "children": [
        49
      ],
      "name": "mixamorig:RightUpLeg_036",
      "rotation": [
        -0.0005016690702177584,
        -0.04873590171337128,
        0.9987586736679077,
        -0.010280847549438477
      ],
      "translation": [
        -9.852516174316406,
        -5.965141296386719,
        3.670499324798584
      ]
    },
    {
      "children": [
        50
      ],
      "name": "mixamorig:RightLeg_037",
      "rotation": [
        0.01431919913738966,
        -0.00028800813015550375,
        -0.020107299089431763,
        0.9996952414512634
      ],
      "translation": [
        1.0555497809150438e-08,
        15.328091621398926,
        6.16684729948247e-08
      ]
    },
    {
      "children": [
        51
      ],
      "name": "mixamorig:RightFoot_038",
      "rotation": [
        0.42451706528663635,
        -0.035301532596349716,
        0.016566921025514603,
        0.9045798182487488
      ],
      "translation": [
        4.6074735138290634e-09,
        7.276280403137207,
        -9.373887444041884e-09
      ]
    },
    {
      "children": [
        52
      ],
      "name": "mixamorig:RightToeBase_039",
      "rotation": [
        0.3699286878108978,
        0.04999326169490814,
        -0.019939564168453217,
        0.9274997711181641
      ],
      "translation": [
        5.0543157215088286e-08,
        14.342608451843262,
        4.1823216179182054e-07
      ]
    },
    {
      "name": "mixamorig:RightToe_End_040",
      "rotation": [
        -1.0069445277594014e-10,
        3.424723612338587e-17,
        3.4485069879176086e-27,
        1.0
      ],
      "translation": [
        2.709903412778658e-10,
        5.689927101135254,
        1.1411238620695485e-09
      ]
    },
    {
      "name": "Object_14",
      "rotation": [
        -3.774895063202166e-08,
        -0.0,
        0.0,
        1.0
      ],
      "scale": [
        100.0,
        100.0,
        100.0
      ]
    },
    {
      "name": "Object_2",
      "rotation": [
        -3.774895063202166e-08,
        -0.0,
        0.0,
        1.0
      ],
      "scale": [
        100.0,
        100.0,
        100.0
      ]
    },
    {
      "name": "Object_6",
      "rotation": [
        -3.774895063202166e-08,
        -0.0,
        0.0,
        1.0
      ],
      "scale": [
        100.0,
        100.0,
        100.0
      ]
    }
  ],
  "samplers": [
    {
      "magFilter": 9729,
      "minFilter": 9987,
      "wrapS": 10497,
      "wrapT": 10497
    }
  ],
  "scene": 0,
  "scenes": [
    {
      "name": "Sketchfab_Scene",
      "nodes": [
        0
      ]
    }
  ],
  "skins": [
    {
      "inverseBindMatrices": 12,
      "joints": [
        5,
        12,
        13,
        14,
        15,
        16,
        17,
        18,
        19,
        20,
        21,
        22,
        23,
        24,
        25,
        26,
        27,
        28,
        29,
        30,
        31,
        32,
        33,
        34,
        35,
        36,
        37,
        38,
        39,
        40,
        41,
        42,
        43,
        44,
        45,
        46,
        47,
        48,
        49,
        50,
        51,
        52
      ],
      "skeleton": 5
    }
  ],
  "textures": [
    {
      "sampler": 0,
      "source": 0
    },
    {
      "sampler": 0,
      "source": 1
    },
    {
      "sampler": 0,
      "source": 2
    }
  ]
}
